<?xml version="1.0" standalone="no"?>
<!DOCTYPE svg PUBLIC "-//W3C//DTD SVG 20010904//EN"
 "http://www.w3.org/TR/2001/REC-SVG-20010904/DTD/svg10.dtd">
<svg version="1.0" xmlns="http://www.w3.org/2000/svg"
 width="1011.000000pt" height="1280.000000pt" viewBox="0 0 1011.000000 1280.000000"
 preserveAspectRatio="xMidYMid meet">
<g transform="translate(0.000000,1280.000000) scale(0.100000,-0.100000)"
fill="#000000" stroke="none">
<path d="M8557 12789 c-58 -14 -110 -44 -150 -88 -62 -69 -78 -114 -78 -220 0
-113 42 -233 129 -366 l39 -61 -1458 -207 -1457 -208 -114 64 c-294 166 -662
344 -958 462 -1086 433 -1981 469 -2530 102 -198 -133 -430 -427 -593 -753
-306 -611 -384 -1365 -227 -2179 149 -773 509 -1567 1059 -2335 l40 -55 70
-671 c39 -369 71 -678 71 -685 0 -8 -27 -24 -60 -37 -135 -53 -283 -179 -359
-305 -163 -275 -141 -622 54 -861 25 -31 45 -58 45 -61 0 -3 -295 -517 -656
-1143 -362 -625 -824 -1427 -1029 -1782 -205 -355 -378 -662 -385 -683 -39
-121 59 -251 190 -252 86 0 137 35 198 138 27 45 465 802 973 1682 507 880
953 1652 989 1715 l66 115 50 -3 c27 -2 53 -7 58 -12 4 -4 163 -892 352 -1972
189 -1079 350 -1982 359 -2005 38 -98 156 -148 253 -107 68 28 113 84 126 155
4 25 -84 549 -303 1805 -171 972 -309 1769 -308 1770 1 1 416 -716 922 -1594
572 -992 934 -1610 957 -1633 47 -48 121 -67 188 -49 97 26 164 134 142 231
-7 29 -364 658 -1036 1822 -564 978 -1026 1782 -1026 1787 0 6 15 27 34 47 73
82 141 216 168 332 11 50 12 51 47 51 20 -1 331 9 691 21 l655 22 173 -87
c672 -337 1331 -541 2012 -622 185 -22 665 -30 840 -14 751 67 1339 309 1834
755 221 199 344 378 421 617 240 741 -122 1869 -988 3079 l-76 106 4 169 c3
93 10 484 15 869 15 1015 31 1929 34 1932 2 2 37 -12 78 -32 218 -100 421
-103 538 -6 20 16 49 53 65 82 28 51 30 60 29 164 0 95 -4 119 -27 180 -179
456 -800 896 -1150 814z m-219 -1178 c-7 -10 -233 -295 -502 -634 l-490 -615
-100 87 c-294 253 -650 528 -974 751 -84 58 -147 107 -140 109 6 2 505 75
1107 161 603 87 1100 158 1104 159 5 0 2 -7 -5 -18z m262 -1153 c-7 -458 -15
-947 -19 -1087 l-6 -254 -127 145 c-184 211 -399 438 -612 646 -128 126 -184
187 -179 196 20 32 948 1194 952 1191 2 -3 -2 -379 -9 -837z m-5893 -4056
l120 -134 -22 -91 c-13 -51 -47 -192 -76 -314 -30 -123 -56 -223 -59 -223 -3
0 -25 188 -48 418 -24 229 -46 435 -49 457 -4 27 -2 37 5 30 5 -5 64 -70 129
-143z m573 -582 c0 -7 -204 -246 -250 -294 -19 -19 -20 -19 -60 -1 -22 10 -40
22 -40 27 0 10 108 457 115 476 3 9 46 -25 120 -94 63 -59 115 -110 115 -114z
m329 -271 c56 -45 98 -85 94 -89 -4 -4 -106 -49 -225 -100 l-217 -93 -20 24
c-12 13 -20 30 -18 37 4 22 261 312 273 308 7 -3 58 -42 113 -87z m-1160 -414
c9 -85 14 -158 10 -163 -4 -4 -55 -90 -114 -192 -58 -102 -110 -189 -115 -194
-5 -5 -19 13 -34 43 -99 194 -65 414 88 567 55 54 134 109 145 98 2 -2 11 -73
20 -159z m1855 -94 c-9 -9 -931 -37 -940 -29 -2 3 131 64 297 135 l303 130
172 -116 c95 -64 170 -118 168 -120z m-1214 -325 c0 -18 -34 -93 -59 -130
l-19 -28 -46 78 -45 79 72 6 c40 3 78 6 85 7 6 1 12 -4 12 -12z"/>
</g>
</svg>
